<mxfile host="app.diagrams.net" modified="2020-12-07T06:40:58.815Z" agent="5.0 (Windows)" etag="ey9oFVabNWt8jxlFE7fR" version="13.10.9" type="github">
  <diagram id="Wip_ogKb_KeGrW0c2JbW" name="Page-1">
    <mxGraphModel dx="1038" dy="547" grid="1" gridSize="10" guides="1" tooltips="1" connect="1" arrows="1" fold="1" page="1" pageScale="1" pageWidth="1169" pageHeight="827" math="0" shadow="0">
      <root>
        <mxCell id="0" />
        <mxCell id="1" parent="0" />
        <mxCell id="Ye9BgQ4vWa-Wv21mzPnw-2" value="PROCUREMENT PLANNING" style="swimlane;html=1;childLayout=stackLayout;resizeParent=1;resizeParentMax=0;horizontal=1;startSize=20;horizontalStack=0;" vertex="1" parent="1">
          <mxGeometry x="10" y="10" width="1150" height="755" as="geometry" />
        </mxCell>
        <mxCell id="Ye9BgQ4vWa-Wv21mzPnw-3" value="HOD Procurement" style="swimlane;html=1;startSize=20;horizontal=0;" vertex="1" parent="Ye9BgQ4vWa-Wv21mzPnw-2">
          <mxGeometry y="20" width="1150" height="220" as="geometry" />
        </mxCell>
        <mxCell id="Ye9BgQ4vWa-Wv21mzPnw-8" value="Start" style="rounded=1;whiteSpace=wrap;html=1;" vertex="1" parent="Ye9BgQ4vWa-Wv21mzPnw-3">
          <mxGeometry x="85" y="10" width="100" height="50" as="geometry" />
        </mxCell>
        <mxCell id="Ye9BgQ4vWa-Wv21mzPnw-11" value="Notification of proposed/ approved budget and drafts a memo requesting HODs to submit their annual departmental procurement plans" style="rounded=0;whiteSpace=wrap;html=1;" vertex="1" parent="Ye9BgQ4vWa-Wv21mzPnw-3">
          <mxGeometry x="45" y="120" width="180" height="90" as="geometry" />
        </mxCell>
        <mxCell id="Ye9BgQ4vWa-Wv21mzPnw-10" value="" style="edgeStyle=orthogonalEdgeStyle;rounded=0;orthogonalLoop=1;jettySize=auto;html=1;entryX=0.5;entryY=0;entryDx=0;entryDy=0;" edge="1" parent="Ye9BgQ4vWa-Wv21mzPnw-3" source="Ye9BgQ4vWa-Wv21mzPnw-8" target="Ye9BgQ4vWa-Wv21mzPnw-11">
          <mxGeometry relative="1" as="geometry">
            <mxPoint x="135" y="135" as="targetPoint" />
          </mxGeometry>
        </mxCell>
        <mxCell id="Ye9BgQ4vWa-Wv21mzPnw-16" value="In line with budget?" style="rhombus;whiteSpace=wrap;html=1;" vertex="1" parent="Ye9BgQ4vWa-Wv21mzPnw-3">
          <mxGeometry x="288" y="125" width="100" height="80" as="geometry" />
        </mxCell>
        <mxCell id="Ye9BgQ4vWa-Wv21mzPnw-19" value="no" style="text;html=1;strokeColor=none;fillColor=none;align=center;verticalAlign=middle;whiteSpace=wrap;rounded=0;" vertex="1" parent="Ye9BgQ4vWa-Wv21mzPnw-3">
          <mxGeometry x="253" y="144" width="40" height="20" as="geometry" />
        </mxCell>
        <mxCell id="Ye9BgQ4vWa-Wv21mzPnw-20" value="Incorporate departmental plans into the proposed Council Procurement Plan" style="whiteSpace=wrap;html=1;" vertex="1" parent="Ye9BgQ4vWa-Wv21mzPnw-3">
          <mxGeometry x="269.5" y="20" width="137" height="70" as="geometry" />
        </mxCell>
        <mxCell id="Ye9BgQ4vWa-Wv21mzPnw-21" value="" style="edgeStyle=orthogonalEdgeStyle;rounded=0;orthogonalLoop=1;jettySize=auto;html=1;" edge="1" parent="Ye9BgQ4vWa-Wv21mzPnw-3" source="Ye9BgQ4vWa-Wv21mzPnw-16" target="Ye9BgQ4vWa-Wv21mzPnw-20">
          <mxGeometry relative="1" as="geometry" />
        </mxCell>
        <mxCell id="Ye9BgQ4vWa-Wv21mzPnw-22" value="Present proposed plan&amp;nbsp; to the council&#39;s management committee and incorporate their amendments" style="whiteSpace=wrap;html=1;" vertex="1" parent="Ye9BgQ4vWa-Wv21mzPnw-3">
          <mxGeometry x="455" y="15" width="150" height="80" as="geometry" />
        </mxCell>
        <mxCell id="Ye9BgQ4vWa-Wv21mzPnw-23" value="" style="edgeStyle=orthogonalEdgeStyle;rounded=0;orthogonalLoop=1;jettySize=auto;html=1;" edge="1" parent="Ye9BgQ4vWa-Wv21mzPnw-3" source="Ye9BgQ4vWa-Wv21mzPnw-20" target="Ye9BgQ4vWa-Wv21mzPnw-22">
          <mxGeometry relative="1" as="geometry" />
        </mxCell>
        <mxCell id="Ye9BgQ4vWa-Wv21mzPnw-30" value="yes" style="text;html=1;strokeColor=none;fillColor=none;align=center;verticalAlign=middle;whiteSpace=wrap;rounded=0;" vertex="1" parent="Ye9BgQ4vWa-Wv21mzPnw-3">
          <mxGeometry x="332" y="100" width="40" height="20" as="geometry" />
        </mxCell>
        <mxCell id="Ye9BgQ4vWa-Wv21mzPnw-43" value="Notify HODs for implementation of plan" style="whiteSpace=wrap;html=1;" vertex="1" parent="Ye9BgQ4vWa-Wv21mzPnw-3">
          <mxGeometry x="872" y="120" width="120" height="60" as="geometry" />
        </mxCell>
        <mxCell id="Ye9BgQ4vWa-Wv21mzPnw-4" value="HODs" style="swimlane;html=1;startSize=20;horizontal=0;" vertex="1" parent="Ye9BgQ4vWa-Wv21mzPnw-2">
          <mxGeometry y="240" width="1150" height="120" as="geometry" />
        </mxCell>
        <mxCell id="Ye9BgQ4vWa-Wv21mzPnw-12" value="HODs submits their departmental plans to HOD procurement" style="whiteSpace=wrap;html=1;rounded=0;" vertex="1" parent="Ye9BgQ4vWa-Wv21mzPnw-4">
          <mxGeometry x="65" y="30" width="140" height="60" as="geometry" />
        </mxCell>
        <mxCell id="Ye9BgQ4vWa-Wv21mzPnw-5" value="CEO" style="swimlane;html=1;startSize=20;horizontal=0;" vertex="1" parent="Ye9BgQ4vWa-Wv21mzPnw-2">
          <mxGeometry y="360" width="1150" height="120" as="geometry" />
        </mxCell>
        <mxCell id="Ye9BgQ4vWa-Wv21mzPnw-24" value="Present proposed plan to the Finance and Governance committee" style="whiteSpace=wrap;html=1;" vertex="1" parent="Ye9BgQ4vWa-Wv21mzPnw-5">
          <mxGeometry x="455" y="30" width="150" height="70" as="geometry" />
        </mxCell>
        <mxCell id="Ye9BgQ4vWa-Wv21mzPnw-26" value="Approved?" style="rhombus;whiteSpace=wrap;html=1;" vertex="1" parent="Ye9BgQ4vWa-Wv21mzPnw-5">
          <mxGeometry x="667" y="25" width="80" height="80" as="geometry" />
        </mxCell>
        <mxCell id="Ye9BgQ4vWa-Wv21mzPnw-27" value="" style="edgeStyle=orthogonalEdgeStyle;rounded=0;orthogonalLoop=1;jettySize=auto;html=1;" edge="1" parent="Ye9BgQ4vWa-Wv21mzPnw-5" source="Ye9BgQ4vWa-Wv21mzPnw-24" target="Ye9BgQ4vWa-Wv21mzPnw-26">
          <mxGeometry relative="1" as="geometry" />
        </mxCell>
        <mxCell id="Ye9BgQ4vWa-Wv21mzPnw-34" value="no  (&lt;i&gt;return with comments&lt;/i&gt;)" style="text;html=1;strokeColor=none;fillColor=none;align=center;verticalAlign=middle;whiteSpace=wrap;rounded=0;" vertex="1" parent="Ye9BgQ4vWa-Wv21mzPnw-5">
          <mxGeometry x="698" width="162" height="20" as="geometry" />
        </mxCell>
        <mxCell id="Ye9BgQ4vWa-Wv21mzPnw-6" value="Board" style="swimlane;html=1;startSize=20;horizontal=0;" vertex="1" parent="Ye9BgQ4vWa-Wv21mzPnw-2">
          <mxGeometry y="480" width="1150" height="135" as="geometry" />
        </mxCell>
        <mxCell id="Ye9BgQ4vWa-Wv21mzPnw-28" value="Proposed plan is presented to the board" style="whiteSpace=wrap;html=1;" vertex="1" parent="Ye9BgQ4vWa-Wv21mzPnw-6">
          <mxGeometry x="647" y="34" width="120" height="60" as="geometry" />
        </mxCell>
        <mxCell id="Ye9BgQ4vWa-Wv21mzPnw-31" value="yes" style="text;html=1;strokeColor=none;fillColor=none;align=center;verticalAlign=middle;whiteSpace=wrap;rounded=0;" vertex="1" parent="Ye9BgQ4vWa-Wv21mzPnw-6">
          <mxGeometry x="700" y="2" width="40" height="20" as="geometry" />
        </mxCell>
        <mxCell id="Ye9BgQ4vWa-Wv21mzPnw-35" value="&lt;div&gt;Board&lt;/div&gt;&lt;div&gt;concurrs?&lt;br&gt;&lt;/div&gt;" style="rhombus;whiteSpace=wrap;html=1;" vertex="1" parent="Ye9BgQ4vWa-Wv21mzPnw-6">
          <mxGeometry x="813" y="24" width="90" height="80" as="geometry" />
        </mxCell>
        <mxCell id="Ye9BgQ4vWa-Wv21mzPnw-36" value="" style="edgeStyle=orthogonalEdgeStyle;rounded=0;orthogonalLoop=1;jettySize=auto;html=1;entryX=0;entryY=0.5;entryDx=0;entryDy=0;" edge="1" parent="Ye9BgQ4vWa-Wv21mzPnw-6" source="Ye9BgQ4vWa-Wv21mzPnw-28" target="Ye9BgQ4vWa-Wv21mzPnw-35">
          <mxGeometry relative="1" as="geometry">
            <mxPoint x="807" y="64" as="targetPoint" />
          </mxGeometry>
        </mxCell>
        <mxCell id="Ye9BgQ4vWa-Wv21mzPnw-39" value="no (&lt;i&gt;return with comments&lt;/i&gt;)" style="text;html=1;strokeColor=none;fillColor=none;align=center;verticalAlign=middle;whiteSpace=wrap;rounded=0;" vertex="1" parent="Ye9BgQ4vWa-Wv21mzPnw-6">
          <mxGeometry x="685" y="100" width="160" height="20" as="geometry" />
        </mxCell>
        <mxCell id="Ye9BgQ4vWa-Wv21mzPnw-7" value="CEO &amp;amp; Board chairman" style="swimlane;html=1;startSize=20;horizontal=0;" vertex="1" parent="Ye9BgQ4vWa-Wv21mzPnw-2">
          <mxGeometry y="615" width="1150" height="140" as="geometry" />
        </mxCell>
        <mxCell id="Ye9BgQ4vWa-Wv21mzPnw-40" value="Signing of annual procurement plan" style="whiteSpace=wrap;html=1;" vertex="1" parent="Ye9BgQ4vWa-Wv21mzPnw-7">
          <mxGeometry x="798" y="55" width="120" height="60" as="geometry" />
        </mxCell>
        <mxCell id="Ye9BgQ4vWa-Wv21mzPnw-13" value="" style="edgeStyle=orthogonalEdgeStyle;rounded=0;orthogonalLoop=1;jettySize=auto;html=1;" edge="1" parent="Ye9BgQ4vWa-Wv21mzPnw-2" source="Ye9BgQ4vWa-Wv21mzPnw-11" target="Ye9BgQ4vWa-Wv21mzPnw-12">
          <mxGeometry relative="1" as="geometry" />
        </mxCell>
        <mxCell id="Ye9BgQ4vWa-Wv21mzPnw-15" value="" style="edgeStyle=orthogonalEdgeStyle;rounded=0;orthogonalLoop=1;jettySize=auto;html=1;entryX=0.5;entryY=1;entryDx=0;entryDy=0;" edge="1" parent="Ye9BgQ4vWa-Wv21mzPnw-2" source="Ye9BgQ4vWa-Wv21mzPnw-12" target="Ye9BgQ4vWa-Wv21mzPnw-16">
          <mxGeometry relative="1" as="geometry">
            <mxPoint x="345" y="215" as="targetPoint" />
          </mxGeometry>
        </mxCell>
        <mxCell id="Ye9BgQ4vWa-Wv21mzPnw-18" value="" style="edgeStyle=orthogonalEdgeStyle;rounded=0;orthogonalLoop=1;jettySize=auto;html=1;entryX=1;entryY=0;entryDx=0;entryDy=0;" edge="1" parent="Ye9BgQ4vWa-Wv21mzPnw-2" source="Ye9BgQ4vWa-Wv21mzPnw-16" target="Ye9BgQ4vWa-Wv21mzPnw-12">
          <mxGeometry relative="1" as="geometry">
            <mxPoint x="218" y="185" as="targetPoint" />
            <Array as="points">
              <mxPoint x="255" y="185" />
              <mxPoint x="255" y="270" />
            </Array>
          </mxGeometry>
        </mxCell>
        <mxCell id="Ye9BgQ4vWa-Wv21mzPnw-25" value="" style="edgeStyle=orthogonalEdgeStyle;rounded=0;orthogonalLoop=1;jettySize=auto;html=1;" edge="1" parent="Ye9BgQ4vWa-Wv21mzPnw-2" source="Ye9BgQ4vWa-Wv21mzPnw-22" target="Ye9BgQ4vWa-Wv21mzPnw-24">
          <mxGeometry relative="1" as="geometry" />
        </mxCell>
        <mxCell id="Ye9BgQ4vWa-Wv21mzPnw-29" value="" style="edgeStyle=orthogonalEdgeStyle;rounded=0;orthogonalLoop=1;jettySize=auto;html=1;" edge="1" parent="Ye9BgQ4vWa-Wv21mzPnw-2" source="Ye9BgQ4vWa-Wv21mzPnw-26" target="Ye9BgQ4vWa-Wv21mzPnw-28">
          <mxGeometry relative="1" as="geometry" />
        </mxCell>
        <mxCell id="Ye9BgQ4vWa-Wv21mzPnw-33" value="" style="edgeStyle=orthogonalEdgeStyle;rounded=0;orthogonalLoop=1;jettySize=auto;html=1;entryX=1;entryY=0.5;entryDx=0;entryDy=0;exitX=0.5;exitY=0;exitDx=0;exitDy=0;" edge="1" parent="Ye9BgQ4vWa-Wv21mzPnw-2" source="Ye9BgQ4vWa-Wv21mzPnw-26" target="Ye9BgQ4vWa-Wv21mzPnw-22">
          <mxGeometry relative="1" as="geometry">
            <mxPoint x="715" y="295" as="targetPoint" />
            <Array as="points">
              <mxPoint x="707" y="75" />
            </Array>
          </mxGeometry>
        </mxCell>
        <mxCell id="Ye9BgQ4vWa-Wv21mzPnw-38" value="" style="edgeStyle=orthogonalEdgeStyle;rounded=0;orthogonalLoop=1;jettySize=auto;html=1;entryX=0.5;entryY=1;entryDx=0;entryDy=0;" edge="1" parent="Ye9BgQ4vWa-Wv21mzPnw-2" source="Ye9BgQ4vWa-Wv21mzPnw-35" target="Ye9BgQ4vWa-Wv21mzPnw-24">
          <mxGeometry relative="1" as="geometry">
            <mxPoint x="858" y="664" as="targetPoint" />
            <Array as="points">
              <mxPoint x="858" y="600" />
              <mxPoint x="530" y="600" />
            </Array>
          </mxGeometry>
        </mxCell>
        <mxCell id="Ye9BgQ4vWa-Wv21mzPnw-41" value="" style="edgeStyle=orthogonalEdgeStyle;rounded=0;orthogonalLoop=1;jettySize=auto;html=1;" edge="1" parent="Ye9BgQ4vWa-Wv21mzPnw-2" source="Ye9BgQ4vWa-Wv21mzPnw-35" target="Ye9BgQ4vWa-Wv21mzPnw-40">
          <mxGeometry relative="1" as="geometry" />
        </mxCell>
        <mxCell id="Ye9BgQ4vWa-Wv21mzPnw-44" value="" style="edgeStyle=orthogonalEdgeStyle;rounded=0;orthogonalLoop=1;jettySize=auto;html=1;entryX=0.5;entryY=1;entryDx=0;entryDy=0;" edge="1" parent="Ye9BgQ4vWa-Wv21mzPnw-2" source="Ye9BgQ4vWa-Wv21mzPnw-40" target="Ye9BgQ4vWa-Wv21mzPnw-43">
          <mxGeometry relative="1" as="geometry">
            <Array as="points">
              <mxPoint x="932" y="700" />
            </Array>
          </mxGeometry>
        </mxCell>
        <mxCell id="Ye9BgQ4vWa-Wv21mzPnw-42" value="yes" style="text;html=1;strokeColor=none;fillColor=none;align=center;verticalAlign=middle;whiteSpace=wrap;rounded=0;" vertex="1" parent="1">
          <mxGeometry x="865" y="631" width="40" height="20" as="geometry" />
        </mxCell>
        <mxCell id="Ye9BgQ4vWa-Wv21mzPnw-46" value="" style="edgeStyle=orthogonalEdgeStyle;rounded=0;orthogonalLoop=1;jettySize=auto;html=1;entryX=0;entryY=0.5;entryDx=0;entryDy=0;" edge="1" parent="1" source="Ye9BgQ4vWa-Wv21mzPnw-43" target="Ye9BgQ4vWa-Wv21mzPnw-47">
          <mxGeometry relative="1" as="geometry">
            <mxPoint x="1082" y="180" as="targetPoint" />
          </mxGeometry>
        </mxCell>
        <mxCell id="Ye9BgQ4vWa-Wv21mzPnw-47" value="End" style="rounded=1;whiteSpace=wrap;html=1;" vertex="1" parent="1">
          <mxGeometry x="1075" y="155" width="75" height="50" as="geometry" />
        </mxCell>
      </root>
    </mxGraphModel>
  </diagram>
</mxfile>
